<?xml version="1.0" standalone="no"?>
<!DOCTYPE svg PUBLIC "-//W3C//DTD SVG 20010904//EN"
 "http://www.w3.org/TR/2001/REC-SVG-20010904/DTD/svg10.dtd">
<svg version="1.0" xmlns="http://www.w3.org/2000/svg"
 width="700.000000pt" height="700.000000pt" viewBox="0 0 700.000000 700.000000"
 preserveAspectRatio="xMidYMid meet">
<metadata>
Created by potrace 1.14, written by Peter Selinger 2001-2017
</metadata>
<g transform="translate(0.000000,700.000000) scale(0.100000,-0.100000)"
fill="#000000" stroke="none">
<path d="M0 3500 l0 -3500 3500 0 3500 0 0 3500 0 3500 -3500 0 -3500 0 0
-3500z m5550 1679 c284 -29 580 -129 795 -269 79 -52 217 -163 265 -214 l24
-27 -118 -118 -118 -119 -92 77 c-206 173 -422 272 -705 323 -165 29 -458 29
-621 0 -229 -41 -469 -140 -645 -264 -111 -78 -271 -237 -348 -345 -124 -175
-214 -386 -253 -598 -26 -135 -26 -460 -1 -586 96 -482 376 -853 810 -1071
486 -243 1188 -210 1635 77 l72 47 0 619 0 619 180 0 180 0 0 -702 -1 -703
-52 -41 c-271 -216 -599 -347 -997 -400 -189 -24 -528 -15 -710 19 -605 116
-1077 470 -1336 1002 -188 389 -231 888 -114 1345 102 398 370 770 729 1011
399 268 871 374 1421 318z m-4740 -1684 l0 -1665 1030 0 1030 0 0 -165 0 -165
-1220 0 -1220 0 0 1830 0 1830 190 0 190 0 0 -1665z"/>
</g>
</svg>
